<svg width="375" height="354" viewBox="0 0 375 354" fill="none" xmlns="http://www.w3.org/2000/svg">
<path d="M132.838 45.0615C154.588 41.2827 176.757 38.1757 197.582 30.702C219.667 22.8085 237.553 5.09011 260.982 1.05938C283.571 -2.8034 307.755 4.08243 325.306 18.6938C349.322 38.6795 361.162 71.0093 360.155 102.163C359.147 133.318 346.215 163.38 327.909 188.656C303.976 221.658 272.906 249.369 236.042 266.5C179.696 292.615 85.2255 306.891 33.9177 262.385C6.29039 238.368 -4.2063 198.481 1.5039 162.289C12.2525 94.5219 67.4231 56.6498 130.823 45.3974C131.495 45.3134 132.167 45.1455 132.838 45.0615Z" fill="#CEE6F7"/>
<path d="M253.676 111.652V317.975H128.892V111.652C128.892 77.2233 156.855 49.2601 191.284 49.2601C225.713 49.2601 253.676 77.2233 253.676 111.652Z" fill="#285672"/>
<path d="M361.078 143.31V318.563H264.509V143.31C264.509 116.607 286.09 95.0257 312.794 95.0257C339.497 95.0257 361.078 116.607 361.078 143.31Z" fill="#285672"/>
<path d="M117.723 143.31V318.563H21.1537V143.31C21.1537 116.607 42.8188 95.0257 69.4384 95.0257C96.0581 95.0257 117.723 116.607 117.723 143.31Z" fill="#285672"/>
<path d="M177.092 110.057C168.779 101.744 168.779 88.3079 177.092 79.9945C183.139 73.9484 191.956 72.2689 199.513 75.124C194.979 74.9561 190.444 76.5516 187.001 79.9945C180.451 86.5444 180.451 97.2091 187.001 103.759C193.551 110.309 204.216 110.309 210.766 103.759C211.27 103.255 211.774 102.751 212.193 102.163C211.186 105.019 209.506 107.706 207.239 110.057C198.842 118.286 185.406 118.286 177.092 110.057Z" fill="#F0AD1D"/>
<path d="M206.063 111.065C197.75 118.37 185.07 118.035 177.093 110.057C168.779 101.744 168.779 88.3079 177.093 79.9945C178.1 78.9868 179.276 78.0631 180.451 77.2234C180.116 77.5593 179.696 77.8952 179.36 78.2311C171.046 86.5444 171.046 99.9802 179.36 108.294C186.665 115.515 197.834 116.439 206.063 111.065Z" fill="#E59D0E"/>
<path d="M104.623 125.172H182.551C182.551 125.172 181.375 109.973 162.229 114.508C162.229 114.508 159.458 107.034 148.793 107.622C138.129 108.21 137.457 116.355 137.457 116.355C137.457 116.355 136.281 113.248 132.083 113.668C128.388 114.004 127.296 117.447 127.296 117.447C127.296 117.447 111.845 116.439 104.623 125.172Z" fill="#3D738E"/>
<path d="M199.01 145.578H276.937C276.937 145.578 275.761 130.379 256.615 134.913C256.615 134.913 253.844 127.439 243.18 128.027C232.515 128.615 231.843 136.761 231.843 136.761C231.843 136.761 230.668 133.654 226.469 134.073C222.774 134.409 221.682 137.852 221.682 137.852C221.682 137.852 206.147 136.845 199.01 145.578Z" fill="#3D738E"/>
<path d="M108.066 232.994V277.752H96.6459V208.054H99.333C100.593 208.054 101.684 207.046 101.684 205.703V199.405C101.684 198.649 101.348 197.977 100.761 197.557L100.845 197.473C104.875 193.443 106.303 187.397 104.539 182.022C102.608 176.144 97.7375 174.549 93.4549 170.938C90.0959 168.083 87.2408 164.64 84.9735 160.945L83.7139 158.93C80.0191 165.731 74.7288 170.77 68.3468 174.968C60.7052 180.007 60.2853 191.175 66.5833 197.557C66.5833 197.557 66.5833 197.557 66.6673 197.641C66.1635 198.061 65.8276 198.733 65.8276 199.405V205.703C65.8276 206.962 66.8353 208.054 68.1788 208.054H70.95V294.799V318.479H117.723V285.814V277.752V218.551C112.013 220.902 108.066 226.444 108.066 232.994Z" fill="#1F4C63"/>
<path d="M251.577 194.03C246.287 177.656 232.431 173.205 220.507 162.876C211.186 154.815 203.04 145.326 196.658 134.829L193.215 129.119C182.971 148.181 168.107 162.372 150.137 174.129C135.442 183.702 130.235 201.504 134.098 217.459H128.892V277.92V285.981V318.143H253.676V285.981V277.92V217.459H252.333C254.264 209.734 254.096 201.588 251.577 194.03Z" fill="#1F4C63"/>
<path d="M317.664 197.641C321.695 193.611 323.206 187.565 321.443 182.106C319.512 176.228 314.641 174.633 310.358 171.022C306.999 168.167 304.144 164.724 301.877 161.029L300.618 159.014C296.923 165.815 291.632 170.854 285.25 175.052C277.609 180.091 277.189 191.259 283.487 197.641C283.487 197.641 283.487 197.641 283.571 197.725C283.067 198.145 282.731 198.817 282.731 199.489V205.787C282.731 207.046 283.739 208.138 285.082 208.138H287.854V277.836H276.433V233.078C276.433 225.772 271.479 219.642 264.677 217.963V277.92V285.981V318.647H313.633V294.883V208.054H316.321C317.58 208.054 318.672 207.046 318.672 205.703V199.405C318.588 198.733 318.252 198.061 317.664 197.641Z" fill="#1F4C63"/>
<path d="M7.71796 170.014H62.4687C62.4687 170.014 61.6289 159.349 48.1932 162.54C48.1932 162.54 46.2618 157.25 38.7042 157.67C31.2305 158.09 30.7267 163.8 30.7267 163.8C30.7267 163.8 29.887 161.617 26.9479 161.953C24.3447 162.205 23.589 164.556 23.589 164.556C23.589 164.556 12.8403 163.884 7.71796 170.014Z" fill="#3D738E"/>
<path d="M59.8655 201.756H114.616C114.616 201.756 113.776 191.091 100.341 194.282C100.341 194.282 98.4093 188.992 90.8517 189.412C83.2941 189.832 82.8742 195.542 82.8742 195.542C82.8742 195.542 82.0345 193.359 79.0954 193.695C76.4922 193.947 75.7365 196.298 75.7365 196.298C75.7365 196.298 64.9039 195.626 59.8655 201.756Z" fill="#3D738E"/>
<path d="M374.514 170.014H319.763C319.763 170.014 320.603 159.349 334.039 162.54C334.039 162.54 335.97 157.25 343.528 157.67C351.002 158.09 351.505 163.8 351.505 163.8C351.505 163.8 352.345 161.617 355.284 161.953C357.887 162.205 358.643 164.556 358.643 164.556C358.643 164.556 369.476 163.884 374.514 170.014Z" fill="#3D738E"/>
<path d="M317.328 190.588H262.578C262.578 190.588 263.417 179.923 276.853 183.114C276.853 183.114 278.784 177.824 286.342 178.243C293.816 178.663 294.319 184.374 294.319 184.374C294.319 184.374 295.159 182.19 298.098 182.526C300.701 182.778 301.457 185.129 301.457 185.129C301.457 185.129 312.206 184.458 317.328 190.588Z" fill="#3D738E"/>
<path opacity="0.5" d="M289.533 353.076H137.373C134.098 353.076 131.411 350.389 131.411 347.114C131.411 343.839 134.098 341.152 137.373 341.152H289.533C292.808 341.152 295.495 343.839 295.495 347.114C295.495 350.389 292.808 353.076 289.533 353.076Z" fill="#A6E2E2"/>
<path d="M178.184 336.282C178.1 336.282 163.069 336.282 163.069 336.282L156.771 336.534C155.175 336.617 153.916 337.793 154 339.305L154.336 348.878C154.42 350.725 156.099 352.069 158.115 351.817C159.206 351.733 160.13 351.145 160.634 350.305L161.054 349.717L179.36 346.526C179.36 346.442 183.81 338.969 178.184 336.282Z" fill="#F4B1A2"/>
<path d="M222.522 312.181L173.65 309.746C167.771 309.83 162.817 313.945 161.641 319.655C160.046 327.464 166.26 334.686 174.237 334.434L220.843 332.587L222.522 312.181Z" fill="#396F8E"/>
<path d="M268.624 312.853L221.85 312.097L209.086 326.709L241.08 345.435L268.624 312.853Z" fill="#316389"/>
<path d="M243.6 315.12L268.708 312.769L270.891 321.418C273.074 330.236 267.952 339.221 259.219 341.824L249.394 344.763C240.409 347.45 231.171 341.488 229.996 332.167C228.82 323.686 235.034 315.96 243.6 315.12Z" fill="#3F7393"/>
<path d="M178.016 330.655L240.409 314.616C248.806 312.349 257.203 318.059 258.967 326.205C260.814 334.854 254.18 343.167 244.943 343.755L178.856 347.618L178.016 346.61C175.161 343.083 175.329 334.434 178.016 330.655Z" fill="#4B7DA3"/>
<path d="M209.842 350.137L211.438 349.381C217.4 346.61 221.179 340.816 221.347 334.266L209.842 336.869V350.137Z" fill="#3E7391"/>
<path d="M209.338 349.13L210.766 348.374C216.056 345.603 219.415 340.144 219.583 334.098L208.919 336.366L209.338 349.13Z" fill="#2D637A"/>
<path d="M213.621 344.595C213.369 344.595 201.697 341.32 201.781 340.48C201.949 339.641 207.911 329.984 207.911 329.984L219.751 334.434L213.621 344.595Z" fill="#EA9F92"/>
<path d="M259.471 349.381C258.799 351.565 256.951 352.069 255.356 351.985C253.676 351.901 252.081 351.145 250.989 349.885L250.15 348.962L245.783 349.214H245.699L228.568 350.137C228.232 350.137 227.897 350.137 227.561 350.137C222.438 350.137 217.484 348.122 213.789 344.511C213.453 343.335 213.621 342.16 214.209 341.068C214.965 339.641 216.056 337.625 216.392 337.037C216.644 336.534 218.827 334.938 220.591 334.518C222.354 334.014 223.278 334.182 225.125 334.434L227.057 334.77L239.905 332.083C240.661 331.915 241.416 331.831 242.256 331.747L244.103 331.663C245.867 331.579 247.546 332.251 248.806 333.51C252.501 337.457 260.562 346.023 259.471 349.381Z" fill="#F4B1A2"/>
<path d="M180.452 311.677L221.347 334.35L218.408 336.198C213.537 339.305 210.43 344.427 209.842 350.137L169.955 336.114C161.641 333.175 158.283 323.266 163.069 315.876C166.848 310.082 174.489 308.234 180.452 311.677Z" fill="#4175A0"/>
<path d="M158.198 296.058C158.198 296.058 158.282 306.135 168.275 307.647L170.039 294.967L158.198 296.058Z" fill="#2F7F62"/>
<path d="M159.206 295.974C159.206 295.974 159.29 305.295 168.527 306.639L170.123 294.967L159.206 295.974Z" fill="#276B51"/>
<path d="M192.376 280.523C192.376 282.874 191.452 285.226 189.605 287.073L172.558 300.425L166.092 305.463L162.733 308.15L156.267 300.845L159.542 296.898L161.893 294.043L177.764 275.149C181.291 271.706 186.749 271.538 189.94 274.813C191.62 276.409 192.376 278.508 192.376 280.523Z" fill="#F4B1A2"/>
<path d="M172.726 300.257C172.726 300.257 172.642 300.341 172.558 300.509L165.42 306.135C166.008 299.249 159.29 297.318 159.29 297.318L161.977 294.127L172.726 300.257Z" fill="#EA9F92"/>
<path d="M224.705 242.651C224.538 244.331 223.866 246.01 222.774 247.438C222.69 247.606 222.522 247.774 222.438 247.942C221.179 249.453 220.003 251.049 218.827 252.56C216.14 256.003 213.537 259.446 210.934 262.889C210.598 263.309 210.262 263.729 209.926 264.148C204.468 271.286 199.01 278.508 193.215 285.226C189.017 290.096 183.475 294.127 178.688 298.41C175.245 301.433 171.802 304.54 168.359 307.647L168.191 306.555L167.771 304.372L167.687 304.12C166.932 300.173 163.993 297.15 160.214 296.31C159.878 296.226 159.542 296.142 159.206 296.142C158.87 296.058 158.534 296.058 158.198 296.058C165.588 287.577 172.81 278.676 180.703 270.698C182.215 269.187 183.307 267.255 184.482 265.492C191.452 255.583 198.254 245.674 205.224 235.765C206.819 233.162 209.338 231.483 212.109 230.895C214.545 230.391 217.148 230.727 219.499 232.071C223.362 234.338 225.293 238.536 224.705 242.651Z" fill="#2F7F62"/>
<path d="M210.934 251.804V262.889C210.85 262.973 210.514 263.645 210.01 264.568C210.01 264.316 210.01 264.232 209.926 264.148C204.468 271.286 199.01 278.508 193.215 285.226C193.635 284.638 207.659 267.255 209.086 257.514C209.422 255.079 210.682 253.316 210.934 251.804Z" fill="#276B51"/>
<path d="M152.908 301.349C151.816 302.188 150.893 303.112 149.885 304.036C148.206 305.547 146.526 307.227 145.434 309.242C142.076 315.036 142.243 323.35 147.114 328.304C147.45 328.64 147.87 328.976 148.374 329.144C148.877 329.312 149.465 329.312 149.801 328.976C150.221 328.64 150.305 328.052 150.221 327.548C150.137 326.037 149.297 324.609 148.877 323.182C148.374 321.334 148.542 319.403 149.045 317.556C149.381 316.128 149.969 314.784 150.977 313.693C152.236 312.349 153.58 312.181 155.259 311.845C156.183 311.677 156.939 312.433 156.855 313.357C156.603 315.708 156.435 319.823 158.702 321.334C160.046 322.258 161.809 321.166 161.725 319.571L161.557 316.548C161.473 315.708 161.641 315.204 161.893 314.784C162.733 313.357 164.832 309.83 165 307.899C165.42 302.188 160.382 297.318 154.84 300.257C154.084 300.425 153.412 300.845 152.908 301.349Z" fill="#F4B1A2"/>
<path d="M267.952 306.303L268.624 312.769L256.448 314.029C256.364 314.029 256.196 314.029 256.112 314.029H255.86H255.44L248.47 314.7L246.371 314.952C246.035 314.952 245.783 315.036 245.531 315.036C245.111 315.12 244.607 315.12 244.103 315.12C243.851 315.12 243.6 315.12 243.348 315.12C243.264 315.12 243.096 315.12 243.012 315.12C242.76 315.12 242.508 315.12 242.256 315.12C242.256 315.12 242.256 315.12 242.172 315.12C242.088 315.12 241.92 315.12 241.836 315.12C241.752 315.12 241.668 315.12 241.584 315.12H241.5C240.996 315.12 240.409 315.12 239.905 315.204H238.225C237.973 315.204 237.721 315.204 237.469 315.204C237.218 315.204 236.882 315.204 236.63 315.204H236.126C233.943 315.204 231.675 315.12 229.492 315.036C227.057 314.868 224.622 314.7 222.186 314.281C221.431 314.197 220.675 314.029 219.919 313.861C218.827 313.609 217.82 313.357 216.728 313.105C215.216 312.685 213.621 312.097 212.109 311.509L213.453 299.753C213.537 298.829 213.453 297.906 213.369 296.982C213.369 296.982 210.178 268.431 209.758 264.4C209.758 264.148 209.758 264.064 209.674 263.98L208.835 257.347L207.407 246.598L206.903 242.651L224.454 242.483L251.997 242.147L264.677 241.979L268.96 241.895L268.204 252.812L266.44 279.264L265.937 286.065L265.769 288.837V289.173L266.272 293.707L267.952 306.303Z" fill="#2F7F62"/>
<path d="M268.624 312.853L246.455 315.12C246.119 315.12 245.867 315.204 245.615 315.204C245.195 315.288 244.691 315.288 244.187 315.288C243.851 315.288 243.432 315.372 243.096 315.372C242.592 315.372 242.088 315.456 241.584 315.456C246.958 309.746 263.333 290.096 266.272 286.485L266.104 289.256L266.608 294.127L268.624 312.853Z" fill="#276B51"/>
<path d="M255.44 314.113C255.44 314.113 269.799 312.097 271.227 323.686C271.227 323.686 272.318 324.021 272.318 321.67C272.318 319.235 269.799 315.708 267.952 306.387C266.188 296.982 255.44 314.113 255.44 314.113Z" fill="#276B51"/>
<path d="M249.898 248.445L245.363 281.363C245.279 283.126 244.607 284.722 243.432 286.065L229.156 303.112C228.316 304.12 227.896 305.463 228.148 306.807C228.484 308.906 229.324 311.929 231.507 312.853C236.546 314.952 259.303 285.898 259.303 285.898L249.898 248.445Z" fill="#276B51"/>
<path d="M259.806 244.499L214.209 248.697C211.774 248.949 209.674 248.277 207.995 247.018C202.369 242.987 203.796 234.17 210.178 231.651C213.285 230.475 216.056 229.299 218.743 228.208C220.171 227.62 221.598 227.2 223.026 226.78C230.584 224.681 238.561 224.513 246.119 226.36C247.798 226.78 249.478 227.284 251.157 227.872L262.326 231.567C269.715 234.17 267.7 243.827 259.806 244.499Z" fill="#2F7F62"/>
<path d="M230.332 305.715C230.5 307.563 231.675 314.281 240.828 317.22C241.332 317.388 241.752 317.052 241.836 316.548L242.676 303.784L230.752 305.211C230.5 305.211 230.332 305.463 230.332 305.715Z" fill="#2F7F62"/>
<path d="M231.507 304.54C231.507 304.54 231.339 313.189 242.424 316.128L241.164 305.547L231.507 304.54Z" fill="#276B51"/>
<path d="M263.921 288.837C263.921 290.852 263.165 292.951 261.654 294.715L247.882 306.975L238.897 314.952L234.11 319.151L226.469 312.433L231.843 305.967L235.958 301.013L249.814 284.302C252.921 280.691 258.127 280.187 261.402 283.042C263.081 284.47 263.921 286.653 263.921 288.837Z" fill="#F4B1A2"/>
<path d="M238.897 314.868C240.073 309.41 231.843 305.883 231.843 305.883L235.958 300.929L247.882 306.891L238.897 314.868Z" fill="#EA9F92"/>
<path d="M269.295 242.147L267.868 264.148L266.356 287.829C266.272 288.837 266.188 289.76 265.852 290.684C265.601 291.692 265.181 292.699 264.509 293.791C263.249 295.89 261.738 297.822 259.974 299.501L241.668 316.884L241.5 315.288C241.164 312.433 239.821 309.914 237.805 308.067C235.79 306.303 233.355 305.211 230.416 305.211L246.707 286.233C247.294 285.562 247.63 284.638 247.63 283.714L249.73 249.033C249.73 243.323 257.623 229.971 257.623 229.971C266.272 231.987 269.715 236.017 269.295 242.147Z" fill="#2F7F62"/>
<path d="M221.179 310.25L229.576 307.731C230.416 307.479 231.423 307.395 232.263 307.647C234.194 308.151 236.966 309.914 236.21 315.54C236.042 316.716 234.95 318.059 234.446 319.067C233.607 320.914 232.935 322.762 231.843 324.525C230.08 327.38 227.309 329.228 224.118 330.236C220.675 331.327 217.904 329.648 214.797 328.304C214.797 328.304 208.667 329.816 207.743 328.22C207.323 327.632 207.323 327.045 207.491 326.541C207.743 325.869 208.247 325.365 208.918 325.113L210.766 324.441C212.697 323.77 214.461 322.846 216.14 321.754L217.988 320.495C219.163 319.739 220.003 318.479 220.423 317.136C220.507 316.884 220.171 316.716 220.003 316.884C218.827 318.395 217.4 319.823 215.72 320.663C214.545 321.25 210.01 322.342 209.842 320.075C209.758 319.067 212.193 317.723 212.865 317.136C214.461 315.792 215.888 314.197 217.232 312.601C218.407 311.593 219.667 310.67 221.179 310.25Z" fill="#F4B1A2"/>
<path d="M234.194 190.168L245.111 189.16L246.203 202.764C246.623 209.146 242.844 215.108 236.798 217.291C236.714 217.291 236.714 217.375 236.63 217.375L234.194 190.168Z" fill="#142E4C"/>
<path d="M212.445 204.359L209.338 204.695C207.323 204.863 205.56 203.771 205.392 202.26L204.468 194.366L211.27 193.695L212.445 204.359Z" fill="#285E71"/>
<path d="M234.782 235.597L234.278 235.681C230.332 236.017 226.721 233.582 225.629 229.971C225.545 229.803 225.545 229.635 225.461 229.467C225.377 229.047 225.293 228.712 225.209 228.292V228.208L223.362 209.23L223.278 208.222C222.858 203.687 226.133 199.657 230.668 199.237L231.171 199.153C234.278 198.817 237.134 200.329 238.813 202.764C238.897 202.932 239.065 203.1 239.149 203.352C239.149 203.352 239.149 203.436 239.233 203.436C239.737 204.359 240.157 205.451 240.241 206.627L240.325 207.802L242.172 226.696C242.676 231.063 239.317 235.094 234.782 235.597Z" fill="#F4B1A2"/>
<path d="M225.881 229.383H225.545C225.461 228.963 225.377 228.628 225.293 228.208V228.124L223.446 209.146L223.362 208.138C222.942 203.604 226.217 199.573 230.752 199.153L231.255 199.069C234.362 198.733 237.218 200.245 238.897 202.68C238.981 202.848 239.149 203.016 239.233 203.268L240.073 212.169C240.912 220.818 234.614 228.544 225.881 229.383Z" fill="#EA9F92"/>
<path d="M225.629 227.284L224.705 227.368C216.056 228.208 208.247 221.826 207.407 213.176L205.895 197.222L205.727 195.29C204.888 186.641 211.27 178.915 219.919 177.992L220.843 177.908C229.492 177.068 237.301 183.45 238.141 192.099L238.393 194.282L239.905 209.985C240.744 218.719 234.362 226.444 225.629 227.284Z" fill="#F4B1A2"/>
<path d="M241.164 203.52L237.973 203.855C235.958 204.023 234.194 202.596 233.943 200.58L232.767 190.336L239.569 189.664L241.164 203.52Z" fill="#142E4C"/>
<path d="M243.767 203.184C242.928 206.626 240.073 208.81 237.385 208.138C234.698 207.466 233.271 204.107 234.111 200.664C234.95 197.221 237.805 195.038 240.493 195.71C243.264 196.382 244.691 199.741 243.767 203.184Z" fill="#F4B1A2"/>
<path d="M234.614 211.833C233.691 211.917 232.767 211.245 232.683 210.237L230.584 190.42L234.027 190.084L236.126 209.901C236.294 210.909 235.538 211.749 234.614 211.833Z" fill="#142E4C"/>
<path d="M235.286 200.832L232.179 201.168C230.164 201.336 228.4 200.245 228.232 198.733L227.309 190.839L234.111 190.168L235.286 200.832Z" fill="#142E4C"/>
<path d="M245.111 192.687C244.019 193.107 243.012 193.443 242.004 193.779C220.759 201 208.331 197.641 204.804 196.382C204.216 196.13 203.712 195.626 203.712 194.954L203.544 193.443C202.453 182.022 210.766 171.862 222.186 170.77L223.362 170.686C225.713 170.434 228.064 170.602 230.248 171.19C238.561 173.205 245.195 180.343 246.035 189.412L246.203 191.007C246.287 191.679 245.867 192.435 245.111 192.687Z" fill="#86C5DB"/>
<path d="M245.111 192.687C244.019 193.107 243.012 193.443 242.004 193.779C243.683 182.442 235.874 174.969 230.248 171.106C238.561 173.121 245.195 180.259 246.035 189.328L246.203 190.924C246.287 191.679 245.867 192.435 245.111 192.687Z" fill="#6FB6C9"/>
<path d="M210.514 326.541L197.75 325.953L140.984 351.229L154.252 350.977L210.514 326.541Z" fill="#57AEA2"/>
<path d="M200.521 353.16L189.772 353.748L175.749 342.16L169.367 338.549L165.924 336.534L139.976 321.754L153.076 322.426L172.558 333.511L176.001 335.442L176.085 335.526L182.299 339.053L182.383 339.137L202.704 350.725L200.521 353.16Z" fill="#70C8BD"/>
<path d="M202.704 350.725L191.956 351.313L175.749 342.076L169.451 338.465L169.367 338.381L169.535 338.465H169.619L182.047 338.885L202.704 350.725Z" fill="#57AEA2"/>
<path d="M200.857 322.342L175.581 333.594L153.748 321.166L152.908 322.51L174.237 334.602L175.497 334.098L176.589 334.854L201.613 323.686L200.857 322.342Z" fill="#57AEA2"/>
<path d="M200.857 322.342L175.917 333.343C176.001 329.9 178.688 327.548 181.711 326.373C183.222 325.785 184.986 325.617 186.581 325.197C189.521 324.441 192.46 323.434 195.483 322.762L200.857 322.342Z" fill="#EDF1C5"/>
<path d="M142.831 320.663L153.748 321.166L172.642 331.915L166.512 334.098L142.831 320.663Z" fill="#DBE9B0"/>
<path d="M148.542 321.502C150.389 321.922 152.068 323.098 153.832 323.77C158.534 325.533 167.016 327.464 166.512 334.098L142.915 320.663C142.831 320.663 148.542 321.502 148.542 321.502Z" fill="#EDF1C5"/>
<path d="M153.748 321.166C155.931 321.922 158.03 322.762 160.214 323.434C163.405 324.441 167.435 324.777 169.871 327.212C170.375 327.716 170.878 328.304 171.13 329.06C171.214 329.312 171.466 331.327 171.466 331.327L153.748 321.166Z" fill="#DBE9B0"/>
<path d="M193.803 321.922L166.428 334.098L142.831 320.663L141.908 322.006L164.496 334.854C164.832 335.022 165.168 335.022 165.504 334.938L166.428 334.602L167.1 335.022C167.436 335.274 167.855 335.274 168.191 335.106L194.643 323.35L193.803 321.922Z" fill="#57AEA2"/>
<path d="M193.635 322.006L166.512 334.098C166.596 330.739 169.199 327.716 172.306 326.625C174.069 326.037 176.085 326.037 177.932 325.617C179.948 325.197 181.879 324.441 183.81 323.77C185.238 323.266 186.581 322.762 188.009 322.426L193.635 322.006Z" fill="#EDF1C5"/>
<path d="M168.023 335.19L176.589 334.854L201.613 323.686L194.643 323.35L168.023 335.19Z" fill="#3E7D71"/>
<path d="M193.803 321.922L200.857 322.342L201.613 323.686L194.643 323.35L193.803 321.922Z" fill="#18937C"/>
<path d="M197.75 325.953L196.071 323.098L139.22 348.542L140.984 351.229L197.75 325.953Z" fill="#93D3CD"/>
<path d="M191.956 351.313L189.772 353.748L172.054 343.755L165.672 340.144L162.229 338.129L138.129 324.525L139.976 321.754L165.924 336.534L169.367 338.549L175.749 342.16L191.956 351.313Z" fill="#93D3CD"/>
<path d="M210.514 326.541L197.75 325.953L169.367 338.549L182.047 338.885L210.514 326.541Z" fill="#61B5A7"/>
<path d="M196.07 323.098L208.834 323.77L210.514 326.541L197.75 325.953L196.07 323.098Z" fill="#70C8BD"/>
<path opacity="0.5" d="M125.701 354H19.9781C18.6345 354 17.4589 352.908 17.4589 351.481C17.4589 350.137 18.5505 348.962 19.9781 348.962H125.701C127.044 348.962 128.22 350.053 128.22 351.481C128.136 352.908 127.044 354 125.701 354Z" fill="#A6E2E2"/>
<path d="M62.6366 351.397C62.6366 351.397 52.8117 333.846 29.467 342.664C29.467 342.664 42.5669 359.71 62.6366 351.397Z" fill="#F9A11B"/>
<path d="M59.9494 350.641C59.9494 350.641 48.1931 345.267 32.2382 343.335C32.2382 343.419 41.8111 347.534 59.9494 350.641Z" fill="#EA8023"/>
<path d="M62.6366 351.397C62.6366 351.397 67.0033 323.602 33.7497 313.189C33.7497 313.105 33.4139 343.083 62.6366 351.397Z" fill="#F9A11B"/>
<path d="M60.2853 348.206C60.2853 348.206 52.0559 332.167 36.1849 316.296C36.1849 316.296 43.1547 329.144 60.2853 348.206Z" fill="#EA8023"/>
<path d="M62.6366 351.397C62.6366 351.397 77.164 334.938 59.6975 314.113C59.6975 314.113 46.8495 333.678 62.6366 351.397Z" fill="#F9A11B"/>
<path d="M62.3847 348.29C62.3847 348.29 63.7283 334.266 59.9495 317.136C59.9495 317.136 59.1097 328.556 62.3847 348.29Z" fill="#EA8023"/>
<path d="M100.929 293.035H63.5603V345.939H100.929V293.035Z" fill="#448B87"/>
<path d="M91.5235 293.035H72.9653V345.939H91.5235V293.035Z" fill="#82E097"/>
<path d="M94.7145 276.912C94.5465 276.828 94.4625 276.66 94.2946 276.576C91.5235 274.309 89.0043 271.874 86.569 269.271C85.5613 268.179 84.6376 267.171 83.63 266.08C83.2941 265.744 82.6223 264.568 82.1184 264.4C78.2557 268.683 74.4768 272.798 70.0262 276.492C67.8429 278.34 65.6596 280.271 64.2321 282.623C62.1327 286.065 62.6366 289.172 63.4763 292.867H100.928C101.768 289.089 102.272 286.065 100.089 282.539C98.7452 280.439 96.7298 278.592 94.7145 276.912Z" fill="#409694"/>
<path d="M88.4165 275.317C87.4928 273.721 86.4851 272.21 85.5614 270.53C84.8896 269.271 84.1338 267.927 83.462 266.584C83.2941 266.332 82.7902 265.24 82.2864 264.4C81.1947 266.332 80.1031 268.347 79.0954 270.278C77.248 273.721 74.7288 276.912 73.3012 280.691C72.4615 282.79 71.9576 284.974 72.0416 287.241C72.0416 289.172 72.7134 291.104 73.0493 293.035H82.2864H91.5235C91.9433 290.936 92.6151 288.837 92.6151 286.737C92.6151 284.218 91.7754 281.699 90.6837 279.348C90.012 277.92 89.1722 276.576 88.4165 275.317Z" fill="#69CE9F"/>
<path d="M102.86 351.565H61.5449L63.5603 345.939H100.928L102.86 351.565Z" fill="#409694"/>
<path d="M92.4472 351.565H71.9576L72.9653 345.939H91.4395L92.4472 351.565Z" fill="#69CE9F"/>
<path d="M86.2331 339.389L83.63 342.328C82.9582 343.083 81.6986 343.083 80.9428 342.328L78.2557 339.389C76.0723 336.953 74.8127 333.762 74.8127 330.403V308.402C74.8127 305.127 76.0723 301.936 78.2557 299.417L80.8588 296.478C81.5306 295.722 82.7902 295.722 83.546 296.478L86.1492 299.417C88.3325 301.852 89.5921 305.043 89.5921 308.402V330.403C89.5921 333.762 88.4165 336.953 86.2331 339.389Z" fill="#FDFFCA"/>
<path d="M70.3621 338.297L69.4384 340.732C69.0186 341.824 67.507 341.824 67.1711 340.732L66.2474 338.297C65.5756 336.45 65.2397 334.602 65.2397 332.587V306.135C65.2397 304.204 65.5756 302.272 66.2474 300.425L67.1711 297.99C67.591 296.898 69.1025 296.898 69.4384 297.99L70.3621 300.425C71.0339 302.272 71.3698 304.12 71.3698 306.135V332.671C71.3698 334.602 71.0339 336.534 70.3621 338.297Z" fill="#FDFFCA"/>
<path d="M98.2413 338.297L97.3176 340.732C96.8978 341.824 95.3862 341.824 95.0504 340.732L94.1266 338.297C93.4548 336.45 93.119 334.602 93.119 332.587V306.135C93.119 304.204 93.4548 302.272 94.1266 300.425L95.0504 297.99C95.4702 296.898 96.9817 296.898 97.3176 297.99L98.2413 300.425C98.9131 302.272 99.249 304.12 99.249 306.135V332.671C99.249 334.602 98.9131 336.534 98.2413 338.297Z" fill="#FDFFCA"/>
</svg>
