<svg width="84" height="111" viewBox="0 0 84 111" fill="none" xmlns="http://www.w3.org/2000/svg">
<path fill-rule="evenodd" clip-rule="evenodd" d="M0.90558 106.579V13.9231C0.90558 10.2825 2.35183 6.79102 4.92618 4.21673C7.50052 1.64244 10.9921 0.196224 14.6328 0.196224L69.5415 0.196224C73.1821 0.196224 76.6737 1.64244 79.248 4.21673C81.8224 6.79102 83.2686 10.2825 83.2686 13.9231V106.579C83.2691 107.175 83.1143 107.761 82.8196 108.279C82.5249 108.797 82.1003 109.229 81.5878 109.533C81.0753 109.837 80.4924 110.003 79.8965 110.013C79.3007 110.023 78.7124 109.879 78.1896 109.592L42.0871 89.8944L5.98464 109.592C5.46183 109.879 4.87355 110.023 4.27769 110.013C3.68184 110.003 3.09895 109.837 2.58642 109.533C2.07388 109.229 1.64935 108.797 1.35463 108.279C1.0599 107.761 0.905144 107.175 0.90558 106.579ZM43.1853 28.3363C43.0849 28.1305 42.9288 27.957 42.7346 27.8356C42.5404 27.7143 42.3161 27.65 42.0871 27.65C41.8581 27.65 41.6338 27.7143 41.4396 27.8356C41.2454 27.957 41.0893 28.1305 40.9889 28.3363L36.6374 37.1558C36.5503 37.3342 36.421 37.4887 36.2608 37.6059C36.1005 37.7231 35.9141 37.7995 35.7177 37.8284L25.9714 39.2423C25.747 39.2763 25.5366 39.3722 25.3636 39.5191C25.1907 39.6661 25.0621 39.8583 24.9923 40.0742C24.9224 40.2901 24.9141 40.5212 24.9683 40.7416C25.0224 40.962 25.1368 41.1629 25.2988 41.3219L32.3408 48.1922C32.6291 48.4736 32.7595 48.8785 32.6909 49.2766L31.0367 58.9815C30.9994 59.2056 31.0253 59.4357 31.1116 59.6458C31.1978 59.856 31.3409 60.038 31.5249 60.1713C31.7088 60.3046 31.9263 60.384 32.1529 60.4006C32.3795 60.4171 32.6062 60.3702 32.8075 60.265L41.5243 55.6802C41.6991 55.5888 41.8933 55.5411 42.0905 55.5411C42.2878 55.5411 42.482 55.5888 42.6568 55.6802L51.3735 60.265C51.5747 60.3683 51.8006 60.4137 52.026 60.3963C52.2515 60.3788 52.4677 60.2991 52.6505 60.1661C52.8334 60.0331 52.9757 59.8519 53.0617 59.6427C53.1477 59.4336 53.1739 59.2047 53.1375 58.9815L51.4765 49.2698C51.4415 49.0747 51.4544 48.8741 51.5142 48.6852C51.574 48.4963 51.6788 48.3247 51.8197 48.1853L58.8755 41.315C59.0374 41.1561 59.1518 40.9551 59.206 40.7347C59.2601 40.5144 59.2518 40.2832 59.182 40.0673C59.1121 39.8514 58.9835 39.6592 58.8106 39.5123C58.6376 39.3653 58.4272 39.2695 58.2028 39.2354L48.4565 37.8216C48.2601 37.7926 48.0737 37.7162 47.9134 37.599C47.7532 37.4818 47.6239 37.3273 47.5368 37.1489L43.1853 28.3363Z" fill="#027878"/>
</svg>
