<svg width="52" height="52" viewBox="0 0 52 52" fill="none" xmlns="http://www.w3.org/2000/svg">
<path d="M27.5113 10.3882L27.0815 9.06549L26.6518 10.3882H25.2612L26.3862 11.2055L25.9565 12.528L27.0815 11.7107L28.2066 12.528L27.7769 11.2055L28.9019 10.3882H27.5113Z" fill="#027878"/>
<path d="M24.7739 10.9036C24.7739 9.74105 25.5729 8.76531 26.6517 8.49479C26.4396 8.44632 26.2193 8.42004 25.9927 8.42004C24.3621 8.42004 23.0403 9.74184 23.0403 11.3724C23.0403 13.0029 24.3622 14.3248 25.9927 14.3248C26.9669 14.3248 27.8308 13.8527 28.3684 13.1249C28.034 13.2925 27.657 13.3874 27.2576 13.3874C25.8859 13.3873 24.7739 12.2753 24.7739 10.9036Z" fill="#F9B52C"/>
<path d="M16.4209 12.9839C19.5567 14.9909 21.7484 16.9283 23.3183 19.0814C23.3782 19.1634 23.4712 19.2069 23.5655 19.2069C23.628 19.2069 23.691 19.1878 23.7454 19.1483C23.8817 19.0488 23.9116 18.8577 23.8122 18.7212C22.1961 16.5049 19.9522 14.5182 16.7504 12.4691C16.6081 12.3781 16.4192 12.4196 16.3282 12.5618C16.2372 12.7038 16.2787 12.8929 16.4209 12.9839Z" fill="#F9B52C"/>
<path d="M15.4852 16.2063C17.3419 16.9964 20.5088 19.3777 23.0743 22.739C23.1427 22.8287 23.2464 22.8759 23.3511 22.8759C23.4247 22.8759 23.499 22.8526 23.562 22.8046C23.7148 22.688 23.7442 22.4695 23.6276 22.3168C21.7755 19.89 18.5228 16.7425 15.7578 15.5658C15.5808 15.4905 15.3765 15.573 15.3013 15.7498C15.226 15.9267 15.3083 16.131 15.4852 16.2063Z" fill="#F9B52C"/>
<path d="M14.852 19.3933C17.4481 20.2586 20.1079 22.3416 22.9834 25.761C23.0523 25.8429 23.1507 25.8851 23.2499 25.8851C23.329 25.8851 23.4085 25.8583 23.4737 25.8035C23.6208 25.6798 23.6398 25.4602 23.5161 25.3131C20.5556 21.7924 17.7935 19.6401 15.0721 18.733C14.8896 18.6726 14.6927 18.7707 14.6318 18.9531C14.5711 19.1354 14.6696 19.3324 14.852 19.3933Z" fill="#F9B52C"/>
<path d="M14.364 21.6681C17.6586 22.861 20.2548 25.4533 22.8433 28.2312C22.9119 28.3048 23.0048 28.342 23.098 28.342C23.183 28.342 23.2681 28.3111 23.3352 28.2486C23.4758 28.1176 23.4836 27.8974 23.3525 27.7567C20.7038 24.9141 18.0413 22.2593 14.601 21.0137C14.4202 20.9479 14.2206 21.0417 14.1552 21.2224C14.0898 21.4032 14.1833 21.6027 14.364 21.6681Z" fill="#F9B52C"/>
<path d="M25.9999 1.84577L33.4858 9.33164C33.9523 9.05503 34.3707 8.83549 34.6813 8.6813L25.9999 0L17.3185 8.6813C17.6292 8.8354 18.0476 9.05503 18.5141 9.33164L25.9999 1.84577Z" fill="#F95E9F"/>
<path d="M2.62209 26.7764L1.84569 25.9999L2.99999 24.8456L4.37964 21.6202L0 25.9999L2.02032 28.0202C2.21035 27.6253 2.46173 27.1067 2.62209 26.7764Z" fill="#F95E9F"/>
<path d="M17.1608 39.2555L25.9999 48.0946L34.8391 39.2555L29.2849 40.0997L30.6456 41.8492L29.0557 43.4391L27.24 40.3957L26.1906 40.5046L28.2657 43.983L25.9999 46.2489L23.7341 43.983L25.8093 40.5046L24.7598 40.3957L22.9442 43.4391L21.3542 41.8492L22.7151 40.0997L17.1608 39.2555Z" fill="#F95E9F"/>
<path d="M28.6815 19.0814C30.2514 16.9283 32.4431 14.9909 35.5789 12.9839C35.7211 12.893 35.7626 12.7039 35.6716 12.5618C35.5806 12.4196 35.3916 12.3781 35.2494 12.4691C32.0476 14.5182 29.8037 16.5049 28.1876 18.7212C28.0882 18.8577 28.1181 19.0488 28.2544 19.1483C28.3088 19.1878 28.3718 19.2069 28.4342 19.2069C28.5286 19.2069 28.6216 19.1634 28.6815 19.0814Z" fill="#F9B52C"/>
<path d="M28.6487 22.8759C28.7536 22.8759 28.8572 22.8288 28.9257 22.7391C31.4911 19.3777 34.6579 16.9964 36.5148 16.2063C36.6917 16.1311 36.774 15.9267 36.6987 15.7498C36.6234 15.573 36.4191 15.4904 36.2422 15.5659C33.4772 16.7425 30.2244 19.8901 28.3724 22.3168C28.2558 22.4696 28.2851 22.6881 28.4379 22.8046C28.5009 22.8526 28.5751 22.8759 28.6487 22.8759Z" fill="#F9B52C"/>
<path d="M29.0165 25.761C31.8919 22.3415 34.5518 20.2586 37.1479 19.3932C37.3303 19.3324 37.4288 19.1353 37.3681 18.9529C37.3072 18.7706 37.1103 18.6723 36.9278 18.7328C34.2063 19.64 31.4442 21.7923 28.4839 25.313C28.3601 25.46 28.3791 25.6796 28.5262 25.8034C28.5915 25.8583 28.6709 25.885 28.75 25.885C28.8491 25.8851 28.9476 25.843 29.0165 25.761Z" fill="#F9B52C"/>
<path d="M37.6358 21.6681C37.8165 21.6027 37.91 21.4032 37.8446 21.2224C37.7792 21.0417 37.5796 20.9479 37.3988 21.0137C33.9584 22.2593 31.296 24.9141 28.6473 27.7567C28.5162 27.8974 28.524 28.1176 28.6646 28.2486C28.7317 28.3111 28.8169 28.342 28.9018 28.342C28.995 28.342 29.088 28.3047 29.1565 28.2312C31.7451 25.4533 34.3413 22.861 37.6358 21.6681Z" fill="#F9B52C"/>
<path d="M51.8608 33.9264C51.8601 33.9152 51.8592 33.904 51.8577 33.893C51.8568 33.8857 51.8555 33.8785 51.8542 33.8712C51.8522 33.8603 51.8499 33.8494 51.8472 33.8387C51.8454 33.8316 51.8436 33.8246 51.8414 33.8176C51.8381 33.8066 51.8342 33.7959 51.8302 33.7852C51.8276 33.7787 51.8253 33.7721 51.8226 33.7658C51.8174 33.7539 51.8117 33.7425 51.8056 33.7313C51.8035 33.7273 51.8019 33.7231 51.7996 33.7191L49.805 30.216V29.0722C49.805 29.0685 49.8043 29.065 49.8042 29.0613C49.8038 29.0482 49.8029 29.035 49.8015 29.0217C49.8007 29.0143 49.8001 29.0067 49.799 28.9992C49.7968 28.9855 49.7937 28.9718 49.7903 28.958C49.7888 28.9517 49.7876 28.9452 49.7859 28.939C49.7855 28.9378 49.7854 28.9367 49.785 28.9355C49.7306 28.7525 49.6741 28.5683 49.6164 28.3833L49.1605 26.9933C48.8063 25.9571 48.4161 24.9037 48.0113 23.8569L46.7864 20.7863C46.6124 20.3593 46.4395 19.9375 46.27 19.5239C45.3147 17.1932 44.4123 14.9917 43.8833 13.3018C43.818 13.0932 43.6192 12.9575 43.4016 12.9668C42.9333 12.9913 42.447 13.0306 41.9473 13.0835C41.5613 12.0299 41.2168 11.0574 40.955 10.2506C40.8871 10.0412 40.6842 9.90435 40.4654 9.92114C39.7512 9.97265 38.9013 10.1927 37.9712 10.5399C37.8552 10.0692 37.7407 9.59337 37.628 9.1081C37.5746 8.87865 37.3626 8.72264 37.1274 8.73918C36.5215 8.78286 35.8862 8.95871 35.2373 9.23714L34.0206 9.86624L32.7913 10.6965L31.7678 11.5188C29.3671 13.5801 27.171 16.3789 25.9997 18.4721C24.8286 16.3789 22.6325 13.58 20.2317 11.5188L19.2081 10.6965L17.9788 9.86624L16.7622 9.23714C16.1133 8.95871 15.478 8.78286 14.8721 8.73918C14.6369 8.72273 14.4249 8.87874 14.3715 9.1081C14.2587 9.59337 14.1442 10.0692 14.0283 10.5399C13.0983 10.1927 12.2483 9.97265 11.5342 9.92114C11.3153 9.90435 11.1125 10.0412 11.0445 10.2506C10.7827 11.0574 10.4382 12.0298 10.0523 13.0835C9.55256 13.0307 9.06625 12.9913 8.59795 12.9668C8.38034 12.9575 8.18152 13.0931 8.11626 13.3018C7.58731 14.9917 6.68492 17.1932 5.72954 19.5239C5.56004 19.9375 5.38723 20.3593 5.21312 20.7863L3.98826 23.8569C3.58339 24.9037 3.19324 25.9571 2.83902 26.9933L2.38316 28.3833C2.32539 28.5683 2.269 28.7525 2.21454 28.9355C2.21419 28.9367 2.2141 28.9378 2.21375 28.939C2.21192 28.9452 2.21088 28.9517 2.20931 28.958C2.20592 28.9717 2.20278 28.9854 2.2007 28.9992C2.19956 29.0067 2.19895 29.0143 2.19817 29.0217C2.19678 29.035 2.19574 29.0482 2.19548 29.0613C2.19539 29.065 2.19469 29.0685 2.19469 29.0722V30.216L0.200036 33.7191C0.197774 33.7231 0.196208 33.7273 0.19412 33.7313C0.188116 33.7426 0.182291 33.754 0.177157 33.7658C0.174373 33.7721 0.17202 33.7787 0.169584 33.7852C0.165494 33.7959 0.161663 33.8066 0.158357 33.8176C0.156269 33.8246 0.154364 33.8316 0.152536 33.8387C0.149839 33.8494 0.147483 33.8603 0.145569 33.8712C0.144264 33.8785 0.142957 33.8857 0.142 33.893C0.140521 33.904 0.139658 33.9152 0.138962 33.9264C0.138527 33.9336 0.137913 33.9408 0.137826 33.9479C0.137739 33.9506 0.13739 33.9532 0.13739 33.956V35.57C0.13739 35.8084 0.312808 36.0105 0.548783 36.0438L11.6119 37.612L13.7626 37.9169L16.1624 38.257L23.3104 39.3342L25.2585 39.5598H25.9999H26.7413L28.6894 39.3342L35.8374 38.257L38.2372 37.9169L40.3879 37.612L51.4511 36.0438C51.687 36.0104 51.8624 35.8084 51.8624 35.57V33.956C51.8624 33.9533 51.8621 33.9506 51.862 33.9479C51.8618 33.9408 51.8612 33.9336 51.8608 33.9264ZM15.2053 9.74607C16.7539 10.0301 18.7363 11.3083 20.8458 13.3933C22.7859 15.3107 24.5985 17.7198 25.4925 19.5638V19.6286V33.4359C24.5576 32.0887 22.9792 30.0467 20.7458 27.928C17.8616 25.1919 14.8438 23.2917 11.9889 22.4091C12.565 19.8341 13.1856 17.5143 13.7869 15.2666C14.2849 13.4054 14.757 11.6405 15.2053 9.74607ZM11.833 10.9172C12.4125 11.003 13.0771 11.194 13.7963 11.4677C13.4957 12.651 13.1845 13.8152 12.8623 15.0193C12.2245 17.4035 11.565 19.8689 10.9574 22.6407C10.9029 22.8894 11.0527 23.1373 11.2984 23.2048C15.9632 24.4833 20.3743 28.4807 23.2663 32.0551C18.7237 28.7319 11.8373 25.6447 6.76002 24.8493C7.33786 22.9967 8.40418 20.181 9.43849 17.4496C10.325 15.1088 11.2395 12.6938 11.833 10.9172ZM6.6154 19.8871C7.5138 17.6954 8.36564 15.6171 8.91546 13.9444C9.18059 13.9616 9.44605 13.9829 9.71153 14.0074C9.33738 15.0139 8.93782 16.0693 8.54349 17.1105C7.39842 20.1341 6.21445 23.2608 5.68151 25.1124C5.64279 25.2467 5.6648 25.3914 5.74172 25.5081C5.81864 25.6249 5.9428 25.7021 6.08149 25.7196C9.05459 26.0943 12.9615 27.3999 16.8007 29.3016C18.3901 30.089 19.8738 30.9316 21.1935 31.7888C15.9369 29.6006 9.28178 28.5793 4.18708 28.5793C3.90629 28.5793 3.61742 28.5808 3.32332 28.5842C4.21797 25.7361 5.48687 22.6404 6.6154 19.8871ZM2.19478 32.1504V32.7052C2.19478 32.8369 2.24907 32.9628 2.34487 33.0532C2.44067 33.1437 2.56971 33.1906 2.70101 33.183C9.35557 32.7966 16.0255 33.9244 23.5216 36.7196L1.38017 33.5811L2.19478 32.1504ZM25.5303 38.6183L1.09452 35.1545V34.5071L25.5303 37.971V38.6183ZM49.2987 33.183C49.43 33.1906 49.5591 33.1437 49.6549 33.0532C49.7507 32.9628 49.805 32.8369 49.805 32.7052V32.1504L50.6196 33.581L28.4782 36.7196C35.9742 33.9244 42.6442 32.7966 49.2987 33.183ZM43.0845 13.9444C43.6343 15.6171 44.4861 17.6954 45.3845 19.8871C46.513 22.6404 47.7819 25.7361 48.6766 28.5841C48.3825 28.5808 48.0936 28.5792 47.8128 28.5792C42.7182 28.5792 36.0631 29.6004 30.8064 31.7887C32.1261 30.9316 33.6098 30.0889 35.1992 29.3016C39.0383 27.3998 42.9453 26.0942 45.9183 25.7196C46.057 25.7021 46.1812 25.6248 46.2581 25.508C46.335 25.3913 46.3571 25.2467 46.3183 25.1123C45.7854 23.2607 44.6014 20.134 43.4563 17.1105C43.0621 16.0692 42.6625 15.0138 42.2883 14.0073C42.5539 13.983 42.8192 13.9617 43.0845 13.9444ZM40.1669 10.9172C40.7605 12.6938 41.6749 15.1089 42.5613 17.4496C43.5957 20.1809 44.662 22.9966 45.2398 24.8492C40.1625 25.6446 33.2761 28.7318 28.7336 32.055C31.6256 28.4806 36.0367 24.4832 40.7016 23.2047C40.9472 23.1372 41.097 22.8894 41.0425 22.6406C40.4349 19.8689 39.7754 17.4035 39.1376 15.0192C38.8155 13.8151 38.5043 12.651 38.2036 11.4676C38.9229 11.1939 39.5873 11.003 40.1669 10.9172ZM26.5074 19.6286V19.5638C27.4013 17.7198 29.2139 15.3107 31.154 13.3933C33.2636 11.3083 35.2459 10.0301 36.7945 9.74607C37.2429 11.6405 37.7151 13.4055 38.2129 15.2666C38.8142 17.5143 39.4348 19.8341 40.011 22.4091C37.156 23.2917 34.1384 25.1918 31.254 27.928C29.0206 30.0467 27.4422 32.0886 26.5074 33.4359V19.6286ZM50.9052 35.1545L26.4694 38.6183V37.971L50.9052 34.5071V35.1545Z" fill="#027878"/>
<path d="M32.241 10.1464L25.9998 3.90533L19.7587 10.1464C20.1059 10.3986 20.452 10.675 20.7786 10.9721L25.9998 5.75103L31.221 10.9721C31.5477 10.675 31.8937 10.3986 32.241 10.1464Z" fill="#F95E9F"/>
<path d="M50.1542 25.9999L49.3777 26.7764C49.5381 27.1067 49.7894 27.6253 49.9797 28.0202L52 25.9999L47.6204 21.6202L49 24.8456L50.1542 25.9999Z" fill="#F95E9F"/>
<path d="M25.9999 50.1542L14.7321 38.8864L12.5555 38.5556L25.9999 52L39.4443 38.5556L37.2678 38.8864L25.9999 50.1542Z" fill="#F95E9F"/>
</svg>
