<svg width="591" height="187" viewBox="0 0 591 187" fill="none" xmlns="http://www.w3.org/2000/svg">
<path d="M98.9349 37.3571L97.3894 32.6006L95.8439 37.3571H90.843L94.889 40.2962L93.3435 45.0524L97.3894 42.1133L101.435 45.0524L99.8898 40.2962L103.936 37.3571H98.9349Z" fill="#027878"/>
<path d="M89.0907 39.2106C89.0907 35.0298 91.9642 31.5209 95.8436 30.5481C95.081 30.3738 94.2888 30.2793 93.4737 30.2793C87.6098 30.2793 82.8564 35.0327 82.8564 40.8965C82.8564 46.7601 87.6101 51.5138 93.4737 51.5138C96.9773 51.5138 100.084 49.816 102.017 47.1988C100.815 47.8015 99.4589 48.1425 98.0224 48.1425C93.0897 48.1422 89.0907 44.1436 89.0907 39.2106Z" fill="#F9B52C"/>
<path d="M59.052 46.6925C70.3289 53.9097 78.2107 60.8772 83.8562 68.6197C84.0715 68.9148 84.406 69.0713 84.7452 69.0713C84.9698 69.0713 85.1964 69.0024 85.3919 68.8604C85.8823 68.5027 85.9899 67.8153 85.6322 67.3246C79.8206 59.3543 71.7511 52.21 60.237 44.841C59.7254 44.5137 59.0461 44.663 58.7188 45.1743C58.3915 45.6852 58.5408 46.3652 59.052 46.6925Z" fill="#F9B52C"/>
<path d="M55.6872 58.2801C62.3643 61.1213 73.7529 69.685 82.9786 81.7729C83.2249 82.0955 83.5975 82.2651 83.9743 82.2651C84.239 82.2651 84.5059 82.1812 84.7328 82.0085C85.2822 81.5892 85.3877 80.8035 84.9684 80.2544C78.3082 71.5274 66.6107 60.2083 56.6675 55.9768C56.0311 55.7059 55.2964 56.0025 55.0257 56.6383C54.755 57.2745 55.0511 58.0092 55.6872 58.2801Z" fill="#F9B52C"/>
<path d="M53.4099 69.7409C62.7461 72.8528 72.3111 80.3434 82.6517 92.6404C82.8995 92.9348 83.2534 93.0866 83.6101 93.0866C83.8946 93.0866 84.1806 92.9902 84.4149 92.793C84.9441 92.3481 85.0123 91.5586 84.5673 91.0295C73.921 78.3687 63.9881 70.6286 54.2016 67.3663C53.5454 67.1491 52.8373 67.502 52.6183 68.1579C52.3999 68.8134 52.7541 69.5219 53.4099 69.7409Z" fill="#F9B52C"/>
<path d="M51.6553 77.9219C63.5029 82.2118 72.8394 91.534 82.1481 101.524C82.3946 101.789 82.7288 101.922 83.0639 101.922C83.3696 101.922 83.6757 101.811 83.9169 101.586C84.4226 101.115 84.4508 100.323 83.9792 99.8175C74.454 89.5949 64.8794 80.0478 52.5074 75.5685C51.8571 75.332 51.1393 75.6693 50.9043 76.3192C50.669 76.9691 51.0054 77.6866 51.6553 77.9219Z" fill="#F9B52C"/>
<path d="M93.4997 6.63768L120.42 33.558C122.097 32.5633 123.602 31.7738 124.719 31.2193L93.4997 0L62.28 31.2193C63.3971 31.7735 64.9019 32.5633 66.5794 33.558L93.4997 6.63768Z" fill="#F95E9F"/>
<path d="M9.42945 96.2915L6.63739 93.4991L10.7884 89.3481L15.7498 77.7493L0 93.4991L7.26538 100.764C7.94877 99.3442 8.85276 97.4796 9.42945 96.2915Z" fill="#F95E9F"/>
<path d="M61.7128 141.168L93.4997 172.955L125.287 141.168L105.313 144.204L110.206 150.496L104.489 156.213L97.9593 145.269L94.1853 145.661L101.648 158.169L93.4997 166.318L85.3516 158.169L92.8141 145.661L89.0402 145.269L82.5107 156.213L76.793 150.496L81.6868 144.204L61.7128 141.168Z" fill="#F95E9F"/>
<path d="M103.143 68.6197C108.789 60.8772 116.67 53.9097 127.947 46.6925C128.459 46.3655 128.608 45.6855 128.28 45.1743C127.953 44.663 127.274 44.5137 126.762 44.841C115.248 52.21 107.179 59.3543 101.367 67.3246C101.009 67.8153 101.117 68.5027 101.607 68.8604C101.803 69.0024 102.029 69.0713 102.254 69.0713C102.593 69.0713 102.928 68.9148 103.143 68.6197Z" fill="#F9B52C"/>
<path d="M103.025 82.2652C103.402 82.2652 103.775 82.0956 104.021 81.773C113.247 69.6851 124.635 61.1215 131.313 58.2803C131.949 58.0096 132.245 57.2746 131.974 56.6385C131.704 56.0026 130.969 55.7057 130.332 55.977C120.389 60.2084 108.692 71.5275 102.032 80.2545C101.612 80.804 101.718 81.5896 102.267 82.0086C102.494 82.1814 102.761 82.2652 103.025 82.2652Z" fill="#F9B52C"/>
<path d="M104.348 92.6401C114.688 80.3432 124.253 72.8528 133.59 69.7406C134.246 69.5219 134.6 68.8132 134.381 68.1573C134.162 67.5015 133.454 67.1482 132.798 67.3657C123.011 70.628 113.078 78.3681 102.432 91.0289C101.987 91.5577 102.056 92.3475 102.585 92.7925C102.819 92.9899 103.105 93.086 103.389 93.086C103.746 93.0863 104.1 92.9349 104.348 92.6401Z" fill="#F9B52C"/>
<path d="M135.344 77.9219C135.994 77.6866 136.33 76.9691 136.095 76.3192C135.86 75.6693 135.142 75.332 134.492 75.5685C122.12 80.0478 112.545 89.5949 103.02 99.8175C102.549 100.323 102.577 101.115 103.082 101.586C103.323 101.811 103.63 101.922 103.935 101.922C104.27 101.922 104.605 101.788 104.851 101.524C114.16 91.534 123.497 82.2118 135.344 77.9219Z" fill="#F9B52C"/>
<path d="M186.499 122.005C186.497 121.964 186.494 121.924 186.488 121.885C186.485 121.858 186.48 121.832 186.476 121.806C186.468 121.767 186.46 121.728 186.451 121.689C186.444 121.664 186.437 121.639 186.43 121.613C186.418 121.574 186.404 121.535 186.389 121.497C186.38 121.473 186.372 121.45 186.362 121.427C186.343 121.385 186.323 121.344 186.301 121.303C186.293 121.289 186.287 121.274 186.279 121.259L179.106 108.662V104.548C179.106 104.535 179.104 104.522 179.104 104.509C179.102 104.462 179.099 104.414 179.094 104.367C179.091 104.34 179.089 104.313 179.085 104.286C179.077 104.236 179.066 104.187 179.054 104.138C179.048 104.115 179.044 104.091 179.038 104.069C179.036 104.065 179.036 104.061 179.035 104.057C178.839 103.399 178.636 102.736 178.428 102.071L176.789 97.0724C175.515 93.346 174.112 89.5576 172.656 85.7933L168.251 74.7508C167.625 73.2154 167.004 71.6985 166.394 70.2112C162.959 61.8297 159.714 53.9128 157.811 47.8356C157.576 47.0855 156.861 46.5974 156.079 46.6309C154.395 46.7188 152.646 46.8602 150.849 47.0505C149.461 43.2615 148.222 39.7644 147.281 36.8631C147.036 36.11 146.307 35.6178 145.52 35.6782C142.951 35.8634 139.895 36.6548 136.55 37.9033C136.133 36.2105 135.721 34.4995 135.316 32.7544C135.124 31.9292 134.362 31.3682 133.516 31.4277C131.337 31.5847 129.052 32.2171 126.719 33.2184L122.343 35.4807L117.923 38.4665L114.242 41.4235C105.609 48.8362 97.7111 58.9012 93.4991 66.4288C89.2873 58.9012 81.3899 48.8359 72.7561 41.4235L69.0754 38.4665L64.6547 35.4807L60.2793 33.2184C57.9459 32.2171 55.6611 31.5847 53.4824 31.4277C52.6366 31.3685 51.874 31.9296 51.6822 32.7544C51.2767 34.4995 50.8649 36.2105 50.4478 37.9033C47.1034 36.6548 44.0469 35.8634 41.4786 35.6782C40.6916 35.6178 39.9623 36.11 39.7179 36.8631C38.7764 39.7644 37.5375 43.2612 36.1495 47.0505C34.3525 46.8605 32.6036 46.7191 30.9196 46.6309C30.137 46.5974 29.422 47.0852 29.1873 47.8356C27.2851 53.9128 24.04 61.8297 20.6043 70.2112C19.9948 71.6985 19.3733 73.2154 18.7472 74.7508L14.3424 85.7933C12.8864 89.5576 11.4834 93.346 10.2095 97.0724L8.57022 102.071C8.36245 102.736 8.15969 103.399 7.96381 104.057C7.96256 104.061 7.96223 104.065 7.96098 104.069C7.95441 104.091 7.95065 104.115 7.94502 104.138C7.93281 104.187 7.92155 104.236 7.91404 104.286C7.90997 104.313 7.90776 104.34 7.90495 104.367C7.89994 104.414 7.89622 104.462 7.89528 104.509C7.89497 104.522 7.89246 104.535 7.89246 104.548V108.662L0.71936 121.259C0.711224 121.274 0.705594 121.289 0.698084 121.303C0.676493 121.344 0.655545 121.385 0.637084 121.427C0.627071 121.45 0.618611 121.473 0.60985 121.497C0.595143 121.535 0.581366 121.574 0.569476 121.613C0.561966 121.639 0.555115 121.664 0.548544 121.689C0.538844 121.728 0.530371 121.767 0.523487 121.806C0.518794 121.832 0.514095 121.858 0.510653 121.885C0.505334 121.924 0.502232 121.964 0.499729 122.005C0.498164 122.031 0.495955 122.056 0.495642 122.082C0.495329 122.092 0.494076 122.101 0.494076 122.111V127.916C0.494076 128.773 1.1249 129.5 1.97351 129.619L41.7584 135.259L49.4925 136.355L58.1224 137.578L83.8277 141.452L90.8334 142.263H93.4997H96.166L103.172 141.452L128.877 137.578L137.507 136.355L145.241 135.259L185.026 129.619C185.874 129.499 186.505 128.773 186.505 127.916V122.111C186.505 122.101 186.504 122.092 186.504 122.082C186.503 122.056 186.501 122.031 186.499 122.005ZM54.6808 35.0486C60.2496 36.0699 67.3785 40.6666 74.9646 48.1644C81.9415 55.06 88.46 63.7234 91.6748 70.3548V70.5876V120.241C88.3129 115.396 82.6368 108.053 74.6051 100.434C64.2329 90.5943 53.3807 83.7607 43.1139 80.5869C45.1856 71.3267 47.4173 62.9843 49.5798 54.9013C51.3705 48.2082 53.0684 41.8612 54.6808 35.0486ZM42.5535 39.26C44.6374 39.5689 47.0271 40.2557 49.6136 41.2398C48.5325 45.4953 47.4135 49.6817 46.2548 54.012C43.9612 62.586 41.5894 71.4519 39.4044 81.4195C39.2085 82.3141 39.7473 83.2056 40.6306 83.4481C57.4062 88.046 73.269 102.421 83.6691 115.275C67.3335 103.325 42.5688 92.2226 24.3101 89.362C26.3881 82.6999 30.2227 72.5743 33.9423 62.7518C37.1301 54.3337 40.4188 45.649 42.5535 39.26ZM23.79 71.5173C27.0208 63.6358 30.0841 56.1617 32.0614 50.1464C33.0148 50.2083 33.9695 50.285 34.9241 50.3729C33.5786 53.9926 32.1418 57.7878 30.7237 61.5324C26.6058 72.4056 22.3481 83.6496 20.4316 90.3083C20.2923 90.7914 20.3715 91.3115 20.6481 91.7314C20.9247 92.1513 21.3712 92.4288 21.87 92.492C32.5617 93.8394 46.6115 98.5346 60.4179 105.373C66.1338 108.205 71.4692 111.235 76.215 114.318C57.3117 106.449 33.3787 102.776 15.0574 102.776C14.0476 102.776 13.0088 102.781 11.9512 102.793C15.1685 92.5512 19.7316 81.4186 23.79 71.5173ZM7.89276 115.618V117.613C7.89276 118.087 8.08801 118.54 8.43252 118.865C8.77703 119.19 9.24108 119.359 9.71325 119.331C33.6441 117.942 57.6302 121.998 84.5872 132.05L4.96331 120.763L7.89276 115.618ZM91.8109 138.878L3.93605 126.421V124.093L91.8109 136.55V138.878ZM177.286 119.331C177.758 119.359 178.222 119.19 178.567 118.865C178.911 118.54 179.106 118.087 179.106 117.613V115.618L182.036 120.763L102.412 132.049C129.369 121.998 153.355 117.942 177.286 119.331ZM154.938 50.1464C156.916 56.1617 159.979 63.6355 163.21 71.5173C167.268 81.4186 171.831 92.5512 175.048 102.793C173.991 102.781 172.952 102.775 171.942 102.775C153.621 102.775 129.688 106.448 110.785 114.317C115.531 111.235 120.866 108.205 126.582 105.373C140.388 98.5343 154.438 93.8391 165.129 92.4917C165.628 92.4288 166.075 92.151 166.351 91.731C166.628 91.3111 166.707 90.7911 166.568 90.3079C164.651 83.6493 160.394 72.4053 156.276 61.5321C154.858 57.7875 153.421 53.9923 152.075 50.3726C153.03 50.2853 153.985 50.2086 154.938 50.1464ZM144.446 39.26C146.581 45.6493 149.869 54.334 153.057 62.7515C156.777 72.574 160.611 82.6996 162.689 89.3617C144.431 92.2223 119.666 103.324 103.33 115.275C113.731 102.421 129.594 88.0456 146.369 83.4478C147.252 83.2053 147.791 82.3141 147.595 81.4192C145.41 71.4519 143.038 62.586 140.745 54.0117C139.586 49.6814 138.468 45.495 137.386 41.2395C139.973 40.2554 142.362 39.5689 144.446 39.26ZM95.3245 70.5876V70.3548C98.5394 63.7234 105.058 55.06 112.035 48.1644C119.621 40.6666 126.75 36.0699 132.319 35.0486C133.931 41.8612 135.629 48.2086 137.42 54.9013C139.582 62.9843 141.814 71.3267 143.886 80.5869C133.619 83.7607 122.767 90.5939 112.394 100.434C104.363 108.053 98.6864 115.396 95.3245 120.241V70.5876V70.5876ZM183.063 126.421L95.1881 138.878V136.55L183.063 124.093V126.421Z" fill="#027878"/>
<path d="M115.944 36.4878L93.4994 14.0439L71.0552 36.4878C72.304 37.3946 73.5484 38.3887 74.7231 39.4573L93.4994 20.6813L112.276 39.4573C113.45 38.3887 114.695 37.3946 115.944 36.4878Z" fill="#F95E9F"/>
<path d="M180.362 93.4991L177.57 96.2915C178.147 97.4796 179.05 99.3442 179.735 100.764L187 93.4991L171.25 77.7493L176.212 89.3481L180.362 93.4991Z" fill="#F95E9F"/>
<path d="M93.4998 180.363L52.979 139.842L45.1517 138.652L93.4998 187L141.848 138.652L134.021 139.842L93.4998 180.363Z" fill="#F95E9F"/>
<path d="M244.662 97.9186C236.009 97.9186 228.957 95.1092 223.506 89.4902C218.056 83.815 215.331 76.4682 215.331 67.4497C215.331 57.9255 218.098 50.1994 223.633 44.2713C229.139 38.3714 236.472 35.4214 245.631 35.4214C254.256 35.4214 261.224 38.245 266.534 43.8921C271.872 49.511 274.541 56.9562 274.541 66.2275C274.541 75.6955 271.774 83.3514 266.239 89.1952C266.042 89.3918 265.86 89.5885 265.691 89.7852C265.522 89.9537 265.34 90.1223 265.143 90.2909L280.441 104.999H261.393L253.385 96.8651C250.745 97.5675 247.837 97.9186 244.662 97.9186ZM245.252 47.137C240.504 47.137 236.711 48.9351 233.873 52.5313C231.064 56.0993 229.659 60.8333 229.659 66.7332C229.659 72.7175 231.064 77.4515 233.873 80.9352C236.683 84.419 240.363 86.1609 244.915 86.1609C249.607 86.1609 253.329 84.4752 256.083 81.1038C258.836 77.6762 260.213 72.9703 260.213 66.9861C260.213 60.749 258.878 55.8746 256.209 52.3627C253.568 48.8789 249.916 47.137 245.252 47.137Z" fill="#027878"/>
<path d="M324.311 96.8651H311.036V90.2909H310.826C307.538 95.3761 303.142 97.9186 297.635 97.9186C287.633 97.9186 282.632 91.8642 282.632 79.7553V53.7112H295.907V78.5753C295.907 84.6719 298.323 87.7202 303.156 87.7202C305.544 87.7202 307.454 86.8914 308.887 85.2338C310.32 83.5481 311.036 81.2724 311.036 78.4067V53.7112H324.311V96.8651Z" fill="#027878"/>
<path d="M351.029 35L342.896 53.7112H334.72L339.525 35H351.029Z" fill="#027878"/>
<path d="M388.747 65.7218C387.146 64.8509 385.277 64.4154 383.142 64.4154C380.248 64.4154 377.987 65.483 376.357 67.6182C374.728 69.7254 373.913 72.6051 373.913 76.2574V96.8651H360.596V53.7112H373.913V61.7183H374.081C376.188 55.8746 379.981 52.9527 385.46 52.9527C386.865 52.9527 387.96 53.1212 388.747 53.4584V65.7218Z" fill="#027878"/>
<path d="M430.889 96.8651H418.289V90.6701H418.12C415.226 95.5025 410.942 97.9186 405.267 97.9186C401.081 97.9186 397.779 96.7387 395.363 94.3787C392.975 91.9906 391.781 88.8159 391.781 84.8545C391.781 76.4822 396.74 71.6499 406.657 70.3575L418.373 68.7982C418.373 64.0783 415.816 61.7183 410.703 61.7183C405.562 61.7183 400.673 63.2495 396.038 66.3118V56.2819C397.892 55.3267 400.42 54.4838 403.623 53.7534C406.854 53.0229 409.79 52.6577 412.431 52.6577C424.737 52.6577 430.889 58.7964 430.889 71.0739V96.8651ZM418.373 79.3338V76.426L410.535 77.4374C406.208 77.9993 404.045 79.9519 404.045 83.2952C404.045 84.8124 404.564 86.0626 405.604 87.0459C406.672 88.0011 408.104 88.4787 409.902 88.4787C412.403 88.4787 414.44 87.6218 416.013 85.9081C417.586 84.1662 418.373 81.9748 418.373 79.3338Z" fill="#027878"/>
<path d="M483.104 96.8651H469.829V72.886C469.829 66.1994 467.441 62.8561 462.665 62.8561C460.361 62.8561 458.465 63.7411 456.976 65.5111C455.486 67.2811 454.742 69.5287 454.742 72.2539V96.8651H441.425V53.7112H454.742V60.5383H454.911C458.085 55.2846 462.707 52.6577 468.775 52.6577C478.328 52.6577 483.104 58.5857 483.104 70.4418V96.8651Z" fill="#027878"/>
<path d="M545.222 96.8651H528.028L510.412 70.6104C510.075 70.1046 509.541 68.9949 508.811 67.2811H508.6V96.8651H494.988V36.4328H508.6V65.0054H508.811C509.148 64.2188 509.71 63.095 510.496 61.634L527.185 36.4328H543.41L522.338 65.2583L545.222 96.8651Z" fill="#F9B52C"/>
<path d="M590.736 96.8651H577.461V90.2909H577.25C573.963 95.3761 569.566 97.9186 564.059 97.9186C554.058 97.9186 549.057 91.8642 549.057 79.7553V53.7112H562.332V78.5753C562.332 84.6719 564.748 87.7202 569.58 87.7202C571.968 87.7202 573.879 86.8914 575.311 85.2338C576.744 83.5481 577.461 81.2724 577.461 78.4067V53.7112H590.736V96.8651Z" fill="#F9B52C"/>
<path d="M229.496 133.926C229.496 129.844 232.096 127.296 235.684 127.296C239.272 127.296 241.872 129.844 241.872 133.926C241.872 138.008 239.272 140.608 235.684 140.608C232.096 140.608 229.496 138.008 229.496 133.926ZM244.914 133.926C244.914 128.518 240.832 124.696 235.684 124.696C230.588 124.696 226.454 128.518 226.454 133.926C226.454 139.36 230.588 143.182 235.684 143.182C236.594 143.182 237.452 143.078 238.258 142.844L241.43 146.276H245.2L240.858 141.674C243.328 140.088 244.914 137.332 244.914 133.926ZM260.88 128.674H257.916V136.656C257.916 139.282 256.486 140.634 254.302 140.634C252.144 140.634 250.714 139.282 250.714 136.656V128.674H247.776V137.098C247.776 141.102 250.324 143.208 253.678 143.208C255.368 143.208 256.98 142.506 257.916 141.284V143H260.88V128.674ZM267.755 135.46C267.755 132.418 269.107 131.508 271.291 131.508H272.045V128.44C270.017 128.44 268.587 129.324 267.755 130.754V128.674H264.791V143H267.755V135.46ZM273.782 135.772C273.782 140.192 276.772 143.234 280.49 143.234C282.882 143.234 284.598 142.09 285.508 140.868V143H288.498V128.674H285.508V130.754C284.624 129.584 282.96 128.44 280.542 128.44C276.772 128.44 273.782 131.352 273.782 135.772ZM285.508 135.824C285.508 138.918 283.402 140.66 281.166 140.66C278.956 140.66 276.824 138.866 276.824 135.772C276.824 132.678 278.956 131.014 281.166 131.014C283.402 131.014 285.508 132.756 285.508 135.824ZM302.557 143H305.495V134.55C305.495 130.546 302.973 128.44 299.619 128.44C297.903 128.44 296.317 129.142 295.355 130.312V128.674H292.391V143H295.355V134.992C295.355 132.366 296.785 131.014 298.969 131.014C301.127 131.014 302.557 132.366 302.557 134.992V143ZM308.548 127.608H310.576L310.888 122.278H308.21L308.548 127.608ZM324.43 138.996C324.274 133.822 316.188 135.434 316.188 132.548C316.188 131.586 317.02 130.936 318.606 130.936C320.218 130.936 321.18 131.794 321.284 133.042H324.248C324.092 130.182 321.96 128.44 318.71 128.44C315.33 128.44 313.198 130.286 313.198 132.574C313.198 137.826 321.518 136.214 321.518 139.022C321.518 140.01 320.608 140.738 318.892 140.738C317.254 140.738 316.136 139.776 316.032 138.606H312.964C313.094 141.206 315.512 143.234 318.944 143.234C322.324 143.234 324.43 141.414 324.43 138.996ZM335.895 126.776C336.935 126.776 337.767 125.944 337.767 124.878C337.767 123.812 336.935 122.98 335.895 122.98C334.829 122.98 333.997 123.812 333.997 124.878C333.997 125.944 334.829 126.776 335.895 126.776ZM334.387 128.674V145.808C334.387 146.874 333.971 147.316 332.723 147.316H331.709V149.812H333.243C335.791 149.812 337.351 148.72 337.351 145.808V128.674H334.387ZM354.216 128.674H351.252V136.656C351.252 139.282 349.822 140.634 347.638 140.634C345.48 140.634 344.05 139.282 344.05 136.656V128.674H341.112V137.098C341.112 141.102 343.66 143.208 347.014 143.208C348.704 143.208 350.316 142.506 351.252 141.284V143H354.216V128.674ZM368.813 138.996C368.657 133.822 360.571 135.434 360.571 132.548C360.571 131.586 361.403 130.936 362.989 130.936C364.601 130.936 365.563 131.794 365.667 133.042H368.631C368.475 130.182 366.343 128.44 363.093 128.44C359.713 128.44 357.581 130.286 357.581 132.574C357.581 137.826 365.901 136.214 365.901 139.022C365.901 140.01 364.991 140.738 363.275 140.738C361.637 140.738 360.519 139.776 360.415 138.606H357.347C357.477 141.206 359.895 143.234 363.327 143.234C366.707 143.234 368.813 141.414 368.813 138.996ZM372.484 139.022C372.484 141.934 374.07 143 376.618 143H378.958V140.53H377.138C375.89 140.53 375.474 140.088 375.474 139.022V131.092H378.958V128.674H375.474V125.112H372.484V128.674H370.794V131.092H372.484V139.022ZM402.094 135.824C402.094 131.326 398.87 128.44 394.788 128.44C390.706 128.44 387.482 131.326 387.482 135.824C387.482 140.322 390.576 143.234 394.658 143.234C398.766 143.234 402.094 140.322 402.094 135.824ZM390.498 135.824C390.498 132.574 392.5 131.014 394.736 131.014C396.946 131.014 399.052 132.574 399.052 135.824C399.052 139.074 396.868 140.66 394.658 140.66C392.422 140.66 390.498 139.074 390.498 135.824ZM415.19 143H418.128V134.55C418.128 130.546 415.606 128.44 412.252 128.44C410.536 128.44 408.95 129.142 407.988 130.312V128.674H405.024V143H407.988V134.992C407.988 132.366 409.418 131.014 411.602 131.014C413.76 131.014 415.19 132.366 415.19 134.992V143ZM427.94 130.936C430.15 130.936 431.892 132.34 431.944 134.55H424.014C424.326 132.288 425.938 130.936 427.94 130.936ZM434.648 138.736H431.45C430.904 139.854 429.89 140.738 428.07 140.738C425.886 140.738 424.196 139.308 423.988 136.942H434.934C435.012 136.448 435.038 135.98 435.038 135.486C435.038 131.274 432.152 128.44 428.07 128.44C423.832 128.44 420.92 131.326 420.92 135.824C420.92 140.322 423.962 143.234 428.07 143.234C431.58 143.234 433.842 141.232 434.648 138.736ZM443.721 135.824C443.721 140.322 446.633 143.234 450.741 143.234C454.251 143.234 456.539 141.284 457.345 138.476H454.147C453.601 139.958 452.509 140.738 450.741 140.738C448.349 140.738 446.763 138.97 446.763 135.824C446.763 132.704 448.349 130.936 450.741 130.936C452.509 130.936 453.653 131.82 454.147 133.198H457.345C456.539 130.182 454.251 128.44 450.741 128.44C446.633 128.44 443.721 131.352 443.721 135.824ZM460.299 143H463.263V123.76H460.299V143ZM467.155 143H470.119V128.674H467.155V143ZM468.663 126.776C469.703 126.776 470.535 125.944 470.535 124.878C470.535 123.812 469.703 122.98 468.663 122.98C467.597 122.98 466.765 123.812 466.765 124.878C466.765 125.944 467.597 126.776 468.663 126.776ZM473.022 135.824C473.022 140.322 475.934 143.234 480.042 143.234C483.552 143.234 485.84 141.284 486.646 138.476H483.448C482.902 139.958 481.81 140.738 480.042 140.738C477.65 140.738 476.064 138.97 476.064 135.824C476.064 132.704 477.65 130.936 480.042 130.936C481.81 130.936 482.954 131.82 483.448 133.198H486.646C485.84 130.182 483.552 128.44 480.042 128.44C475.934 128.44 473.022 131.352 473.022 135.824ZM489.6 143H492.564V136.838L497.868 143H501.872L495.268 135.85L501.872 128.674H497.764L492.564 134.94V123.76H489.6V143ZM509.762 135.772C509.762 140.192 512.752 143.234 516.47 143.234C518.862 143.234 520.578 142.09 521.488 140.868V143H524.478V128.674H521.488V130.754C520.604 129.584 518.94 128.44 516.522 128.44C512.752 128.44 509.762 131.352 509.762 135.772ZM521.488 135.824C521.488 138.918 519.382 140.66 517.146 140.66C514.936 140.66 512.804 138.866 512.804 135.772C512.804 132.678 514.936 131.014 517.146 131.014C519.382 131.014 521.488 132.756 521.488 135.824ZM531.153 143H534.273L537.159 132.418L540.045 143H543.165L547.611 128.674H544.699L541.735 140.14L538.823 128.674H535.729L532.687 140.192L529.697 128.674H526.681L531.153 143ZM548.838 135.772C548.838 140.192 551.828 143.234 555.546 143.234C557.938 143.234 559.654 142.09 560.564 140.868V143H563.554V128.674H560.564V130.754C559.68 129.584 558.016 128.44 555.598 128.44C551.828 128.44 548.838 131.352 548.838 135.772ZM560.564 135.824C560.564 138.918 558.458 140.66 556.222 140.66C554.012 140.66 551.88 138.866 551.88 135.772C551.88 132.678 554.012 131.014 556.222 131.014C558.458 131.014 560.564 132.756 560.564 135.824ZM573.089 139.594L569.059 128.674H565.757L571.399 142.766L568.487 149.734H571.555L580.343 128.674H577.275L573.089 139.594Z" fill="#F95E9F"/>
</svg>
